
 
http://www.imdb.com/title/tt1606378/


[b]John McClane travels to Russia to help out his seemingly wayward son, Jack, only to discover that Jack is a CIA operative working to prevent a nuclear-weapons heist, causing the father and son to team up against underworld forces. 



Director:
 John Moore

Writers:
 Skip Woods, Roderick Thorp (certain original characters)

Stars:
 Bruce Willis, Jai Courtney, Sebastian Koch

Genres:
 Action | Crime | Thriller 

Country:
USA

 [/b]



Format                                   : AVI
Format/Info                              : Audio Video Interleave
File size                                : 694 MiB
Duration                                 : 1h 38mn
Overall bit rate                         : 988 Kbps
Writing application                      : Lavf55.3.100

Video
ID                                       : 0
Format                                   : MPEG-4 Visual
Format profile                           : Simple@L3
Format settings, BVOP                    : No
Format settings, QPel                    : No
Format settings, GMC                     : No warppoints
Format settings, Matrix                  : Default (H.263)
Codec ID                                 : XVID
Codec ID/Hint                            : XviD
Duration                                 : 1h 38mn
Bit rate                                 : 850 Kbps
Width                                    : 640 pixels
Height                                   : 320 pixels
Display aspect ratio                     : 1.85:1
Frame rate                               : 23.976 fps
Color space                              : YUV
Chroma subsampling                       : 4:2:0
Bit depth                                : 8 bits
Scan type                                : Progressive
Compression mode                         : Lossy
Bits/(Pixel*Frame)                       : 0.173
Stream size                              : 597 MiB (86%)
Writing library                          : XviD 64

Audio
ID                                       : 1
Format                                   : AC-3
Format/Info                              : Audio Coding 3
Mode extension                           : CM (complete main)
Format settings, Endianness              : Big
Codec ID                                 : 2000
Duration                                 : 1h 37mn
Bit rate mode                            : Constant
Bit rate                                 : 128 Kbps
Channel(s)                               : 2 channels
Channel positions                        : Front: L R
Sampling rate                            : 48.0 KHz
Bit depth                                : 16 bits
Compression mode                         : Lossy
Stream size                              : 89.4 MiB (13%)
Alignment                                : Aligned on interleaves
Interleave, duration                     : 32 ms (0.77 video frame)




Screens:

    	http://addpix.net/viewer.php?file=80511292358615703711.jpg
    	http://addpix.net/viewer.php?file=28710913051112359022.jpg
    	http://addpix.net/viewer.php?file=86745879343652894018.jpg
    	http://addpix.net/viewer.php?file=51792154097310698953.jpg
    	http://addpix.net/viewer.php?file=55626615431697627412.jpg
    	http://addpix.net/viewer.php?file=05383299798779912786.jpg